<?xml version="1.0" encoding="UTF-8" standalone="no"?>
<svg
   width="207.901"
   height="75.001"
   viewBox="0 0 207.901 75.001"
   version="1.1"
   id="svg1"
   sodipodi:docname="avyos-logo-simple.svg"
   inkscape:version="1.3 (0e150ed, 2023-07-21)"
   xmlns:inkscape="http://www.inkscape.org/namespaces/inkscape"
   xmlns:sodipodi="http://sodipodi.sourceforge.net/DTD/sodipodi-0.dtd"
   xmlns="http://www.w3.org/2000/svg"
   xmlns:svg="http://www.w3.org/2000/svg">
  <defs
     id="defs1" />
  <sodipodi:namedview
     id="namedview1"
     pagecolor="#ffffff"
     bordercolor="#000000"
     borderopacity="0.25"
     inkscape:showpageshadow="2"
     inkscape:pageopacity="0.0"
     inkscape:pagecheckerboard="0"
     inkscape:deskcolor="#d1d1d1"
     inkscape:zoom="6.4501854"
     inkscape:cx="62.091239"
     inkscape:cy="37.518301"
     inkscape:window-width="1920"
     inkscape:window-height="1117"
     inkscape:window-x="0"
     inkscape:window-y="0"
     inkscape:window-maximized="1"
     inkscape:current-layer="svg1" />
  <g
     id="svgGroup"
     stroke-linecap="round"
     fill-rule="evenodd"
     font-size="9pt"
     stroke="#000"
     stroke-width="0.25mm"
     fill="#000"
     style="stroke:#000;stroke-width:0.25mm;fill:#000" />
  <path
     d="M 207.9 60 L 207.9 66.2 Q 207.9 73.147 202.54 74.61 A 12.325 12.325 0 0 1 199.3 75 L 175.1 75 L 175.1 59.9 L 181.9 59.9 L 181.9 68.2 L 199.9 68.2 L 199.9 59.9 L 183.5 49.6 Q 181 48 179.2 47 Q 177.657 46.143 176.554 45.285 A 13.529 13.529 0 0 1 176.2 45 Q 174 43 174 39.6 L 174 33.9 Q 174 29.7 175.4 28.1 A 8.623 8.623 0 0 1 179.757 25.445 Q 181.187 25.056 182.904 25.007 A 17.504 17.504 0 0 1 183.4 25 L 206.7 25 L 206.7 40 L 199.9 40 L 199.9 31.8 L 181.9 31.8 L 181.9 40.2 L 198.9 50.8 Q 201 52.1 202.65 53.05 Q 204.3 54 205.4 55 Q 207.9 57.1 207.9 60 Z M 76.1 68.2 L 81.7 68.2 L 94.3 49.1 L 82.8 31.8 L 76.9 31.8 L 76.9 25 L 86.5 25 L 98.7 43 L 110.1 25 L 119.9 25 L 119.9 31.8 L 114.3 31.8 L 102.8 49.1 L 115.3 68.2 L 120.9 68.2 L 120.9 75 L 111.5 75 L 98.7 55.1 L 86 75 L 76.1 75 L 76.1 68.2 Z M 38.1 32.7 L 38.1 41.6 L 30 41.6 L 30 31.9 L 14.4 41.8 L 14.4 68.2 L 19.3 68.2 L 19.3 75 L 0 75 L 0 68.2 L 6.3 68.2 L 6.3 31.7 L 0 31.7 L 0 24.9 L 14.4 24.9 L 14.4 33.7 L 26.7 26 A 6.624 6.624 0 0 1 30.168 25.001 A 7.922 7.922 0 0 1 30.3 25 Q 36.458 25 37.754 29.799 A 11.141 11.141 0 0 1 38.1 32.7 Z M 61.6 0 L 61.6 68.2 L 68.1 68.2 L 68.1 75 L 47.1 75 L 47.1 68.2 L 53.4 68.2 L 53.4 6.8 L 47.1 6.8 L 47.1 0 L 61.6 0 Z M 155.7 75 L 137.2 75 A 17.452 17.452 0 0 1 134.702 74.834 Q 131.66 74.393 130.117 72.777 A 5.244 5.244 0 0 1 130 72.65 A 7.774 7.774 0 0 1 128.346 69.579 Q 127.9 68.036 127.9 66.1 L 127.9 33.9 Q 127.9 30.621 129.143 28.383 A 7.973 7.973 0 0 1 129.75 27.45 A 5.041 5.041 0 0 1 131.716 25.933 Q 133.423 25.148 136.142 25.023 A 23.184 23.184 0 0 1 137.2 25 L 155.7 25 Q 161.2 25 163.1 27.45 Q 164.869 29.731 164.991 33.356 A 16.183 16.183 0 0 1 165 33.9 L 165 66.1 Q 165 69.298 163.783 71.423 A 7.222 7.222 0 0 1 162.9 72.65 A 6.083 6.083 0 0 1 160.594 74.215 Q 158.648 75 155.7 75 Z M 136 31.8 L 136 68.2 L 156.9 68.2 L 156.9 31.8 L 136 31.8 Z"
     vector-effect="non-scaling-stroke"
     id="path1"
     style="stroke:#000;stroke-width:0.25mm;fill:#000" />
</svg>
