<?xml version="1.0" encoding="UTF-8" standalone="no"?>
<!-- Created with Inkscape (http://www.inkscape.org/) -->

<svg
   width="256"
   height="256"
   viewBox="0 0 67.733332 67.733333"
   version="1.1"
   id="svg1"
   inkscape:version="1.3 (0e150ed, 2023-07-21)"
   sodipodi:docname="avyos-logo-white.svg"
   xml:space="preserve"
   xmlns:inkscape="http://www.inkscape.org/namespaces/inkscape"
   xmlns:sodipodi="http://sodipodi.sourceforge.net/DTD/sodipodi-0.dtd"
   xmlns="http://www.w3.org/2000/svg"
   xmlns:svg="http://www.w3.org/2000/svg"><sodipodi:namedview
     id="namedview1"
     pagecolor="#ffffff"
     bordercolor="#000000"
     borderopacity="0.25"
     inkscape:showpageshadow="2"
     inkscape:pageopacity="0.0"
     inkscape:pagecheckerboard="0"
     inkscape:deskcolor="#d1d1d1"
     inkscape:document-units="mm"
     inkscape:zoom="1.3750881"
     inkscape:cx="81.085711"
     inkscape:cy="188.35156"
     inkscape:window-width="1920"
     inkscape:window-height="1117"
     inkscape:window-x="0"
     inkscape:window-y="0"
     inkscape:window-maximized="1"
     inkscape:current-layer="layer1" /><defs
     id="defs1" /><g
     inkscape:label="Layer 1"
     inkscape:groupmode="layer"
     id="layer1"><path
       d="m 68.020474,53.28495 v 1.745739 q 0,1.956073 -1.50922,2.368011 a 3.470361,3.470361 0 0 1 -0.912289,0.109813 H 58.78495 v -4.25172 h 1.914681 v 2.337037 h 5.068276 V 53.256793 L 61.150145,50.356612 Q 60.446218,49.906099 59.93939,49.624529 59.504926,49.383222 59.194354,49.141634 a 3.8093723,3.8093723 0 0 1 -0.09967,-0.08025 q -0.619462,-0.56314 -0.619462,-1.52048 V 45.93595 q 0,-1.182598 0.394199,-1.633112 a 2.4279857,2.4279857 0 0 1 1.226804,-0.74757 q 0.402646,-0.109531 0.886104,-0.123328 a 4.9286166,4.9286166 0 0 1 0.139659,-0.002 h 6.560601 v 4.223561 h -1.914682 v -2.308903 h -5.068276 v 2.365195 l 4.786706,2.984651 q 0.591298,0.366043 1.05589,0.633535 0.464592,0.267492 0.774321,0.549063 0.703926,0.591299 0.703926,1.407854 z m -37.111041,2.30888 h 1.576797 l 3.547793,-5.378003 -3.238065,-4.871176 H 31.13469 v -1.914682 h 2.70308 l 3.435165,5.068275 3.209908,-5.068275 h 2.759395 v 1.914682 h -1.576797 l -3.238065,4.871176 3.519635,5.378003 h 1.576797 v 1.914683 h -2.646765 l -3.604108,-5.60326 -3.57595,5.60326 H 30.909433 Z M 26.826655,36.390697 V 55.59383 h 1.830211 v 1.914683 H 22.743878 V 55.59383 h 1.773896 V 38.305378 h -1.773896 v -1.914681 z m 26.49582,21.117816 h -5.209062 a 4.9139749,4.9139749 0 0 1 -0.703364,-0.04674 Q 46.553511,57.3376 46.119048,56.882581 A 1.4765577,1.4765577 0 0 1 46.0861,56.846824 2.1889319,2.1889319 0 0 1 45.620381,55.98212 Q 45.494804,55.547654 45.494804,55.002532 V 45.93595 q 0,-0.923271 0.349993,-1.553427 a 2.2449646,2.2449646 0 0 1 0.170913,-0.262706 1.4193988,1.4193988 0 0 1 0.553569,-0.427143 q 0.480641,-0.221033 1.246232,-0.25623 a 6.5279391,6.5279391 0 0 1 0.297902,-0.0065 h 5.209062 q 1.548639,0 2.083625,0.689849 0.498099,0.642263 0.53245,1.662958 a 4.5566615,4.5566615 0 0 1 0.0026,0.153174 v 9.066582 q 0,0.900464 -0.342672,1.498801 a 2.0335048,2.0335048 0 0 1 -0.248627,0.345488 1.7127956,1.7127956 0 0 1 -0.649302,0.440659 q -0.547957,0.221038 -1.378028,0.221038 z M 47.775528,45.344651 V 55.59383 H 53.66036 V 45.344651 Z"
       vector-effect="non-scaling-stroke"
       id="path1"
       style="font-size:12px;fill:#ffffff;fill-rule:evenodd;stroke:none;stroke-width:0.0703927mm;stroke-linecap:round;fill-opacity:1" /><path
       d="M 27.66846,28.315551 V 34.5316 h -5.657305 v -6.774796 l -10.895552,6.914483 v 18.438625 h 3.42232 v 4.749344 H 1.0581717 V 53.109912 H 5.458298 V 27.617116 H 1.0581717 V 22.867775 H 11.115603 v 6.146208 l 8.590723,-5.377933 a 4.6264184,4.6264184 0 0 1 2.422165,-0.697732 5.5329842,5.5329842 0 0 1 0.09221,-7e-4 q 4.300948,0 5.206117,3.351778 a 7.781239,7.781239 0 0 1 0.241668,2.026155 z"
       vector-effect="non-scaling-stroke"
       id="path1-6"
       style="font-size:12px;fill:#ffffff;fill-rule:evenodd;stroke:none;stroke-width:0.174608mm;stroke-linecap:round;fill-opacity:1" /></g></svg>
