<?xml version="1.0" encoding="UTF-8" standalone="no"?>
<!-- Created with Inkscape (http://www.inkscape.org/) -->
<svg width="128" height="128" viewBox="0 0 12.7 12.7" version="1.1" id="svg5" inkscape:version="1.1.2 (0a00cf5, 2022-02-04)" sodipodi:docname="logo_alt.svg" xmlns:inkscape="http://www.inkscape.org/namespaces/inkscape" xmlns:sodipodi="http://sodipodi.sourceforge.net/DTD/sodipodi-0.dtd" xmlns="http://www.w3.org/2000/svg" xmlns:svg="http://www.w3.org/2000/svg">
  <sodipodi:namedview id="namedview7" pagecolor="#ffffff" bordercolor="#666666" borderopacity="1.0" inkscape:pageshadow="2" inkscape:pageopacity="0.0" inkscape:pagecheckerboard="0" inkscape:document-units="mm" showgrid="false" units="px" inkscape:zoom="8" inkscape:cx="-8.4375" inkscape:cy="24.875" inkscape:window-width="1920" inkscape:window-height="1000" inkscape:window-x="1920" inkscape:window-y="0" inkscape:window-maximized="1" inkscape:current-layer="layer1"/>
  <defs id="defs2"/>
  <g inkscape:label="Layer 1" inkscape:groupmode="layer" id="layer1">
    <path id="path41" style="fill:#dedede;fill-opacity:1;stroke:#dedede;stroke-width:0.1;stroke-linecap:round;stroke-linejoin:miter;stroke-miterlimit:4;stroke-dasharray:none;stroke-opacity:1" d="M 8.2422295,1.8574962 C 7.6613477,1.8580069 6.9577841,2.1143362 6.3219332,2.7256604 5.9843338,2.4561381 6.1519336,2.177516 5.7612441,2.050766 5.1136748,1.8406775 3.7577487,2.1468842 3.7577487,2.1468842 L 3.0792372,7.6860808 c 0,0 -0.317442,2.2790277 1.9378662,2.7414342 C 7.272411,10.889922 8.0141505,9.2413617 8.1362927,8.8958262 8.2584347,8.5502904 8.7375382,6.810841 7.4355602,5.3270519 6.7132009,4.684783 6.4053047,4.5880704 6.4020315,4.2713022 6.3917213,3.2734664 9.0388396,3.3886692 8.2665175,4.521933 10.204495,3.0945692 9.5201691,1.8563727 8.2422295,1.8574962 Z M 5.9829358,5.5291068 C 6.3692912,6.0862864 6.9406002,6.1140394 7.0893283,7.3522513 7.2163833,8.1242559 6.9536039,8.4948134 6.5797987,8.7506154 6.0517605,8.8332083 5.6943772,8.670076 5.6408377,8.0700367 Z"/>
  </g>
</svg>